# MagicaVoxel @ Ephtracy

# material
mtllib catapultarm.mtl
usemtl palette

# normals
vn -1 0 0
vn 1 0 0
vn 0 0 1
vn 0 0 -1
vn 0 -1 0
vn 0 1 0

# texcoords
vt 0.326172 0.5
vt 0.435547 0.5
vt 0.923828 0.5
vt 0.958984 0.5

# verts
v -3.5 2 -21
v -3.5 2 -24
v -3.5 3 -21
v -3.5 3 -24
v -3.5 21 12
v -3.5 21 10
v -3.5 22 14
v -3.5 22 12
v -3.5 22 10
v -3.5 23 16
v -3.5 23 14
v -3.5 23 12
v -3.5 24 18
v -3.5 24 16
v -3.5 24 14
v -3.5 25 20
v -3.5 25 18
v -3.5 25 16
v -3.5 26 22
v -3.5 26 20
v -3.5 26 18
v -3.5 27 24
v -3.5 27 22
v -3.5 27 20
v -3.5 28 26
v -3.5 28 24
v -3.5 28 22
v -3.5 29 26
v -3.5 29 24
v -2.5 1 -21
v -2.5 1 -24
v -2.5 2 -20
v -2.5 2 -21
v -2.5 2 -24
v -2.5 2 -25
v -2.5 3 -20
v -2.5 3 -21
v -2.5 3 -24
v -2.5 3 -25
v -2.5 4 -21
v -2.5 4 -24
v -2.5 10 -10
v -2.5 10 -12
v -2.5 11 -8
v -2.5 11 -10
v -2.5 11 -12
v -2.5 12 -6
v -2.5 12 -8
v -2.5 12 -10
v -2.5 13 -4
v -2.5 13 -6
v -2.5 13 -8
v -2.5 14 -2
v -2.5 14 -4
v -2.5 14 -6
v -2.5 15 -0
v -2.5 15 -2
v -2.5 15 -4
v -2.5 16 2
v -2.5 16 -0
v -2.5 16 -2
v -2.5 17 4
v -2.5 17 2
v -2.5 17 -0
v -2.5 18 6
v -2.5 18 4
v -2.5 18 2
v -2.5 19 8
v -2.5 19 6
v -2.5 19 4
v -2.5 20 10
v -2.5 20 8
v -2.5 20 6
v -2.5 21 10
v -2.5 21 8
v -1.5 0 -21
v -1.5 0 -24
v -1.5 1 -20
v -1.5 1 -21
v -1.5 1 -24
v -1.5 1 -25
v -1.5 2 -19
v -1.5 2 -20
v -1.5 2 -21
v -1.5 2 -24
v -1.5 2 -25
v -1.5 2 -26
v -1.5 3 -19
v -1.5 3 -20
v -1.5 3 -21
v -1.5 3 -24
v -1.5 3 -25
v -1.5 3 -26
v -1.5 4 -20
v -1.5 4 -21
v -1.5 4 -24
v -1.5 4 -25
v -1.5 5 -20
v -1.5 5 -21
v -1.5 5 -22
v -1.5 5 -24
v -1.5 6 -18
v -1.5 6 -20
v -1.5 6 -22
v -1.5 7 -16
v -1.5 7 -18
v -1.5 7 -20
v -1.5 8 -14
v -1.5 8 -16
v -1.5 8 -18
v -1.5 9 -12
v -1.5 9 -14
v -1.5 9 -16
v -1.5 10 -12
v -1.5 10 -14
v 1.5 3 -21
v 1.5 3 -24
v 1.5 4 -21
v 1.5 4 -24
v -1.5 3 -21
v -1.5 3 -24
v -1.5 4 -21
v -1.5 4 -24
v 1.5 0 -21
v 1.5 0 -24
v 1.5 1 -20
v 1.5 1 -21
v 1.5 1 -24
v 1.5 1 -25
v 1.5 2 -19
v 1.5 2 -20
v 1.5 2 -21
v 1.5 2 -24
v 1.5 2 -25
v 1.5 2 -26
v 1.5 3 -19
v 1.5 3 -20
v 1.5 3 -21
v 1.5 3 -24
v 1.5 3 -25
v 1.5 3 -26
v 1.5 4 -20
v 1.5 4 -21
v 1.5 4 -24
v 1.5 4 -25
v 1.5 5 -20
v 1.5 5 -21
v 1.5 5 -22
v 1.5 5 -24
v 1.5 6 -18
v 1.5 6 -20
v 1.5 6 -22
v 1.5 7 -16
v 1.5 7 -18
v 1.5 7 -20
v 1.5 8 -14
v 1.5 8 -16
v 1.5 8 -18
v 1.5 9 -12
v 1.5 9 -14
v 1.5 9 -16
v 1.5 10 -12
v 1.5 10 -14
v 2.5 1 -21
v 2.5 1 -24
v 2.5 2 -20
v 2.5 2 -21
v 2.5 2 -24
v 2.5 2 -25
v 2.5 3 -20
v 2.5 3 -21
v 2.5 3 -24
v 2.5 3 -25
v 2.5 4 -21
v 2.5 4 -24
v 2.5 10 -10
v 2.5 10 -12
v 2.5 11 -8
v 2.5 11 -10
v 2.5 11 -12
v 2.5 12 -6
v 2.5 12 -8
v 2.5 12 -10
v 2.5 13 -4
v 2.5 13 -6
v 2.5 13 -8
v 2.5 14 -2
v 2.5 14 -4
v 2.5 14 -6
v 2.5 15 -0
v 2.5 15 -2
v 2.5 15 -4
v 2.5 16 2
v 2.5 16 -0
v 2.5 16 -2
v 2.5 17 4
v 2.5 17 2
v 2.5 17 -0
v 2.5 18 6
v 2.5 18 4
v 2.5 18 2
v 2.5 19 8
v 2.5 19 6
v 2.5 19 4
v 2.5 20 10
v 2.5 20 8
v 2.5 20 6
v 2.5 21 10
v 2.5 21 8
v 3.5 2 -21
v 3.5 2 -24
v 3.5 3 -21
v 3.5 3 -24
v 3.5 21 12
v 3.5 21 10
v 3.5 22 14
v 3.5 22 12
v 3.5 22 10
v 3.5 23 16
v 3.5 23 14
v 3.5 23 12
v 3.5 24 18
v 3.5 24 16
v 3.5 24 14
v 3.5 25 20
v 3.5 25 18
v 3.5 25 16
v 3.5 26 22
v 3.5 26 20
v 3.5 26 18
v 3.5 27 24
v 3.5 27 22
v 3.5 27 20
v 3.5 28 26
v 3.5 28 24
v 3.5 28 22
v 3.5 29 26
v 3.5 29 24
v -3.5 28 26
v -3.5 29 26
v 3.5 28 26
v 3.5 29 26
v -3.5 27 24
v -3.5 28 24
v 3.5 27 24
v 3.5 28 24
v -3.5 26 22
v -3.5 27 22
v 3.5 26 22
v 3.5 27 22
v -3.5 25 20
v -3.5 26 20
v 3.5 25 20
v 3.5 26 20
v -3.5 24 18
v -3.5 25 18
v 3.5 24 18
v 3.5 25 18
v -3.5 23 16
v -3.5 24 16
v 3.5 23 16
v 3.5 24 16
v -3.5 22 14
v -3.5 23 14
v 3.5 22 14
v 3.5 23 14
v -3.5 21 12
v -3.5 22 12
v 3.5 21 12
v 3.5 22 12
v -2.5 20 10
v -2.5 21 10
v 2.5 20 10
v 2.5 21 10
v -2.5 19 8
v -2.5 20 8
v 2.5 19 8
v 2.5 20 8
v -2.5 18 6
v -2.5 19 6
v 2.5 18 6
v 2.5 19 6
v -2.5 17 4
v -2.5 18 4
v 2.5 17 4
v 2.5 18 4
v -2.5 16 2
v -2.5 17 2
v 2.5 16 2
v 2.5 17 2
v -2.5 15 -0
v -2.5 16 -0
v 2.5 15 -0
v 2.5 16 -0
v -2.5 14 -2
v -2.5 15 -2
v 2.5 14 -2
v 2.5 15 -2
v -2.5 13 -4
v -2.5 14 -4
v 2.5 13 -4
v 2.5 14 -4
v -2.5 12 -6
v -2.5 13 -6
v 2.5 12 -6
v 2.5 13 -6
v -2.5 11 -8
v -2.5 12 -8
v 2.5 11 -8
v 2.5 12 -8
v -2.5 10 -10
v -2.5 11 -10
v 2.5 10 -10
v 2.5 11 -10
v -1.5 9 -12
v -1.5 10 -12
v 1.5 9 -12
v 1.5 10 -12
v -1.5 8 -14
v -1.5 9 -14
v 1.5 8 -14
v 1.5 9 -14
v -1.5 7 -16
v -1.5 8 -16
v 1.5 7 -16
v 1.5 8 -16
v -1.5 6 -18
v -1.5 7 -18
v 1.5 6 -18
v 1.5 7 -18
v -1.5 2 -19
v -1.5 3 -19
v 1.5 2 -19
v 1.5 3 -19
v -2.5 2 -20
v -2.5 3 -20
v -1.5 1 -20
v -1.5 2 -20
v -1.5 3 -20
v -1.5 4 -20
v -1.5 5 -20
v -1.5 6 -20
v 1.5 1 -20
v 1.5 2 -20
v 1.5 3 -20
v 1.5 4 -20
v 1.5 5 -20
v 1.5 6 -20
v 2.5 2 -20
v 2.5 3 -20
v -3.5 2 -21
v -3.5 3 -21
v -2.5 1 -21
v -2.5 2 -21
v -2.5 3 -21
v -2.5 4 -21
v -1.5 0 -21
v -1.5 1 -21
v -1.5 2 -21
v -1.5 3 -21
v -1.5 4 -21
v -1.5 5 -21
v 1.5 0 -21
v 1.5 1 -21
v 1.5 2 -21
v 1.5 3 -21
v 1.5 4 -21
v 1.5 5 -21
v 2.5 1 -21
v 2.5 2 -21
v 2.5 3 -21
v 2.5 4 -21
v 3.5 2 -21
v 3.5 3 -21
v -1.5 3 -24
v -1.5 4 -24
v 1.5 3 -24
v 1.5 4 -24
v -3.5 28 24
v -3.5 29 24
v 3.5 28 24
v 3.5 29 24
v -3.5 27 22
v -3.5 28 22
v 3.5 27 22
v 3.5 28 22
v -3.5 26 20
v -3.5 27 20
v 3.5 26 20
v 3.5 27 20
v -3.5 25 18
v -3.5 26 18
v 3.5 25 18
v 3.5 26 18
v -3.5 24 16
v -3.5 25 16
v 3.5 24 16
v 3.5 25 16
v -3.5 23 14
v -3.5 24 14
v 3.5 23 14
v 3.5 24 14
v -3.5 22 12
v -3.5 23 12
v 3.5 22 12
v 3.5 23 12
v -3.5 21 10
v -3.5 22 10
v -2.5 21 10
v 2.5 21 10
v 3.5 21 10
v 3.5 22 10
v -2.5 20 8
v -2.5 21 8
v 2.5 20 8
v 2.5 21 8
v -2.5 19 6
v -2.5 20 6
v 2.5 19 6
v 2.5 20 6
v -2.5 18 4
v -2.5 19 4
v 2.5 18 4
v 2.5 19 4
v -2.5 17 2
v -2.5 18 2
v 2.5 17 2
v 2.5 18 2
v -2.5 16 -0
v -2.5 17 -0
v 2.5 16 -0
v 2.5 17 -0
v -2.5 15 -2
v -2.5 16 -2
v 2.5 15 -2
v 2.5 16 -2
v -2.5 14 -4
v -2.5 15 -4
v 2.5 14 -4
v 2.5 15 -4
v -2.5 13 -6
v -2.5 14 -6
v 2.5 13 -6
v 2.5 14 -6
v -2.5 12 -8
v -2.5 13 -8
v 2.5 12 -8
v 2.5 13 -8
v -2.5 11 -10
v -2.5 12 -10
v 2.5 11 -10
v 2.5 12 -10
v -2.5 10 -12
v -2.5 11 -12
v -1.5 10 -12
v 1.5 10 -12
v 2.5 10 -12
v 2.5 11 -12
v -1.5 9 -14
v -1.5 10 -14
v 1.5 9 -14
v 1.5 10 -14
v -1.5 8 -16
v -1.5 9 -16
v 1.5 8 -16
v 1.5 9 -16
v -1.5 7 -18
v -1.5 8 -18
v 1.5 7 -18
v 1.5 8 -18
v -1.5 6 -20
v -1.5 7 -20
v 1.5 6 -20
v 1.5 7 -20
v -1.5 3 -21
v -1.5 4 -21
v 1.5 3 -21
v 1.5 4 -21
v -1.5 5 -22
v -1.5 6 -22
v 1.5 5 -22
v 1.5 6 -22
v -3.5 2 -24
v -3.5 3 -24
v -2.5 1 -24
v -2.5 2 -24
v -2.5 3 -24
v -2.5 4 -24
v -1.5 0 -24
v -1.5 1 -24
v -1.5 2 -24
v -1.5 3 -24
v -1.5 4 -24
v -1.5 5 -24
v 1.5 0 -24
v 1.5 1 -24
v 1.5 2 -24
v 1.5 3 -24
v 1.5 4 -24
v 1.5 5 -24
v 2.5 1 -24
v 2.5 2 -24
v 2.5 3 -24
v 2.5 4 -24
v 3.5 2 -24
v 3.5 3 -24
v -2.5 2 -25
v -2.5 3 -25
v -1.5 1 -25
v -1.5 2 -25
v -1.5 3 -25
v -1.5 4 -25
v 1.5 1 -25
v 1.5 2 -25
v 1.5 3 -25
v 1.5 4 -25
v 2.5 2 -25
v 2.5 3 -25
v -1.5 2 -26
v -1.5 3 -26
v 1.5 2 -26
v 1.5 3 -26
v -1.5 0 -21
v 1.5 0 -21
v -1.5 0 -24
v 1.5 0 -24
v -1.5 1 -20
v 1.5 1 -20
v -2.5 1 -21
v -1.5 1 -21
v 1.5 1 -21
v 2.5 1 -21
v -2.5 1 -24
v -1.5 1 -24
v 1.5 1 -24
v 2.5 1 -24
v -1.5 1 -25
v 1.5 1 -25
v -1.5 2 -19
v 1.5 2 -19
v -2.5 2 -20
v -1.5 2 -20
v 1.5 2 -20
v 2.5 2 -20
v -3.5 2 -21
v -2.5 2 -21
v -1.5 2 -21
v 1.5 2 -21
v 2.5 2 -21
v 3.5 2 -21
v -3.5 2 -24
v -2.5 2 -24
v -1.5 2 -24
v 1.5 2 -24
v 2.5 2 -24
v 3.5 2 -24
v -2.5 2 -25
v -1.5 2 -25
v 1.5 2 -25
v 2.5 2 -25
v -1.5 2 -26
v 1.5 2 -26
v -1.5 4 -21
v 1.5 4 -21
v -1.5 4 -24
v 1.5 4 -24
v -1.5 5 -20
v 1.5 5 -20
v -1.5 5 -21
v 1.5 5 -21
v -1.5 6 -18
v 1.5 6 -18
v -1.5 6 -20
v 1.5 6 -20
v -1.5 7 -16
v 1.5 7 -16
v -1.5 7 -18
v 1.5 7 -18
v -1.5 8 -14
v 1.5 8 -14
v -1.5 8 -16
v 1.5 8 -16
v -1.5 9 -12
v 1.5 9 -12
v -1.5 9 -14
v 1.5 9 -14
v -2.5 10 -10
v 2.5 10 -10
v -2.5 10 -12
v -1.5 10 -12
v 1.5 10 -12
v 2.5 10 -12
v -2.5 11 -8
v 2.5 11 -8
v -2.5 11 -10
v 2.5 11 -10
v -2.5 12 -6
v 2.5 12 -6
v -2.5 12 -8
v 2.5 12 -8
v -2.5 13 -4
v 2.5 13 -4
v -2.5 13 -6
v 2.5 13 -6
v -2.5 14 -2
v 2.5 14 -2
v -2.5 14 -4
v 2.5 14 -4
v -2.5 15 -0
v 2.5 15 -0
v -2.5 15 -2
v 2.5 15 -2
v -2.5 16 2
v 2.5 16 2
v -2.5 16 -0
v 2.5 16 -0
v -2.5 17 4
v 2.5 17 4
v -2.5 17 2
v 2.5 17 2
v -2.5 18 6
v 2.5 18 6
v -2.5 18 4
v 2.5 18 4
v -2.5 19 8
v 2.5 19 8
v -2.5 19 6
v 2.5 19 6
v -2.5 20 10
v 2.5 20 10
v -2.5 20 8
v 2.5 20 8
v -3.5 21 12
v 3.5 21 12
v -3.5 21 10
v -2.5 21 10
v 2.5 21 10
v 3.5 21 10
v -3.5 22 14
v 3.5 22 14
v -3.5 22 12
v 3.5 22 12
v -3.5 23 16
v 3.5 23 16
v -3.5 23 14
v 3.5 23 14
v -3.5 24 18
v 3.5 24 18
v -3.5 24 16
v 3.5 24 16
v -3.5 25 20
v 3.5 25 20
v -3.5 25 18
v 3.5 25 18
v -3.5 26 22
v 3.5 26 22
v -3.5 26 20
v 3.5 26 20
v -3.5 27 24
v 3.5 27 24
v -3.5 27 22
v 3.5 27 22
v -3.5 28 26
v 3.5 28 26
v -3.5 28 24
v 3.5 28 24
v -1.5 3 -19
v 1.5 3 -19
v -2.5 3 -20
v -1.5 3 -20
v 1.5 3 -20
v 2.5 3 -20
v -3.5 3 -21
v -2.5 3 -21
v -1.5 3 -21
v 1.5 3 -21
v 2.5 3 -21
v 3.5 3 -21
v -3.5 3 -24
v -2.5 3 -24
v -1.5 3 -24
v 1.5 3 -24
v 2.5 3 -24
v 3.5 3 -24
v -2.5 3 -25
v -1.5 3 -25
v 1.5 3 -25
v 2.5 3 -25
v -1.5 3 -26
v 1.5 3 -26
v -1.5 4 -20
v 1.5 4 -20
v -2.5 4 -21
v -1.5 4 -21
v 1.5 4 -21
v 2.5 4 -21
v -2.5 4 -24
v -1.5 4 -24
v 1.5 4 -24
v 2.5 4 -24
v -1.5 4 -25
v 1.5 4 -25
v -1.5 5 -22
v 1.5 5 -22
v -1.5 5 -24
v 1.5 5 -24
v -1.5 6 -20
v 1.5 6 -20
v -1.5 6 -22
v 1.5 6 -22
v -1.5 7 -18
v 1.5 7 -18
v -1.5 7 -20
v 1.5 7 -20
v -1.5 8 -16
v 1.5 8 -16
v -1.5 8 -18
v 1.5 8 -18
v -1.5 9 -14
v 1.5 9 -14
v -1.5 9 -16
v 1.5 9 -16
v -1.5 10 -12
v 1.5 10 -12
v -1.5 10 -14
v 1.5 10 -14
v -2.5 11 -10
v 2.5 11 -10
v -2.5 11 -12
v 2.5 11 -12
v -2.5 12 -8
v 2.5 12 -8
v -2.5 12 -10
v 2.5 12 -10
v -2.5 13 -6
v 2.5 13 -6
v -2.5 13 -8
v 2.5 13 -8
v -2.5 14 -4
v 2.5 14 -4
v -2.5 14 -6
v 2.5 14 -6
v -2.5 15 -2
v 2.5 15 -2
v -2.5 15 -4
v 2.5 15 -4
v -2.5 16 -0
v 2.5 16 -0
v -2.5 16 -2
v 2.5 16 -2
v -2.5 17 2
v 2.5 17 2
v -2.5 17 -0
v 2.5 17 -0
v -2.5 18 4
v 2.5 18 4
v -2.5 18 2
v 2.5 18 2
v -2.5 19 6
v 2.5 19 6
v -2.5 19 4
v 2.5 19 4
v -2.5 20 8
v 2.5 20 8
v -2.5 20 6
v 2.5 20 6
v -2.5 21 10
v 2.5 21 10
v -2.5 21 8
v 2.5 21 8
v -3.5 22 12
v 3.5 22 12
v -3.5 22 10
v 3.5 22 10
v -3.5 23 14
v 3.5 23 14
v -3.5 23 12
v 3.5 23 12
v -3.5 24 16
v 3.5 24 16
v -3.5 24 14
v 3.5 24 14
v -3.5 25 18
v 3.5 25 18
v -3.5 25 16
v 3.5 25 16
v -3.5 26 20
v 3.5 26 20
v -3.5 26 18
v 3.5 26 18
v -3.5 27 22
v 3.5 27 22
v -3.5 27 20
v 3.5 27 20
v -3.5 28 24
v 3.5 28 24
v -3.5 28 22
v 3.5 28 22
v -3.5 29 26
v 3.5 29 26
v -3.5 29 24
v 3.5 29 24

# faces
f 3/4/1 2/4/1 1/4/1
f 4/4/1 2/4/1 3/4/1
f 8/1/1 6/1/1 5/1/1
f 9/1/1 6/1/1 8/1/1
f 11/1/1 8/1/1 7/1/1
f 12/1/1 8/1/1 11/1/1
f 14/3/1 11/3/1 10/3/1
f 15/3/1 11/3/1 14/3/1
f 17/1/1 14/1/1 13/1/1
f 18/1/1 14/1/1 17/1/1
f 20/1/1 17/1/1 16/1/1
f 21/1/1 17/1/1 20/1/1
f 23/3/1 20/3/1 19/3/1
f 24/3/1 20/3/1 23/3/1
f 26/1/1 23/1/1 22/1/1
f 27/1/1 23/1/1 26/1/1
f 28/1/1 26/1/1 25/1/1
f 29/1/1 26/1/1 28/1/1
f 33/4/1 31/4/1 30/4/1
f 34/4/1 31/4/1 33/4/1
f 36/4/1 33/4/1 32/4/1
f 37/4/1 33/4/1 36/4/1
f 38/4/1 35/4/1 34/4/1
f 39/4/1 35/4/1 38/4/1
f 40/4/1 38/4/1 37/4/1
f 41/4/1 38/4/1 40/4/1
f 45/1/1 43/1/1 42/1/1
f 46/1/1 43/1/1 45/1/1
f 48/1/1 45/1/1 44/1/1
f 49/1/1 45/1/1 48/1/1
f 51/2/1 48/2/1 47/2/1
f 52/2/1 48/2/1 51/2/1
f 54/2/1 51/2/1 50/2/1
f 55/2/1 51/2/1 54/2/1
f 57/2/1 54/2/1 53/2/1
f 58/2/1 54/2/1 57/2/1
f 60/2/1 57/2/1 56/2/1
f 61/2/1 57/2/1 60/2/1
f 63/2/1 60/2/1 59/2/1
f 64/2/1 60/2/1 63/2/1
f 66/2/1 63/2/1 62/2/1
f 67/2/1 63/2/1 66/2/1
f 69/2/1 66/2/1 65/2/1
f 70/2/1 66/2/1 69/2/1
f 72/1/1 69/1/1 68/1/1
f 73/1/1 69/1/1 72/1/1
f 74/1/1 72/1/1 71/1/1
f 75/1/1 72/1/1 74/1/1
f 79/4/1 77/4/1 76/4/1
f 80/4/1 77/4/1 79/4/1
f 83/4/1 79/4/1 78/4/1
f 84/4/1 79/4/1 83/4/1
f 85/4/1 81/4/1 80/4/1
f 86/4/1 81/4/1 85/4/1
f 88/4/1 83/4/1 82/4/1
f 89/4/1 83/4/1 88/4/1
f 92/4/1 87/4/1 86/4/1
f 93/4/1 87/4/1 92/4/1
f 94/4/1 90/4/1 89/4/1
f 95/4/1 90/4/1 94/4/1
f 96/4/1 92/4/1 91/4/1
f 97/4/1 92/4/1 96/4/1
f 99/4/1 96/4/1 95/4/1
f 100/4/1 96/4/1 99/4/1
f 101/4/1 96/4/1 100/4/1
f 103/1/1 99/1/1 98/1/1
f 103/1/1 100/1/1 99/1/1
f 104/1/1 100/1/1 103/1/1
f 106/1/1 103/1/1 102/1/1
f 107/1/1 103/1/1 106/1/1
f 109/1/1 106/1/1 105/1/1
f 110/1/1 106/1/1 109/1/1
f 112/1/1 109/1/1 108/1/1
f 113/1/1 109/1/1 112/1/1
f 114/1/1 112/1/1 111/1/1
f 115/1/1 112/1/1 114/1/1
f 118/4/1 117/4/1 116/4/1
f 119/4/1 117/4/1 118/4/1
f 120/4/2 121/4/2 122/4/2
f 122/4/2 121/4/2 123/4/2
f 124/4/2 125/4/2 127/4/2
f 127/4/2 125/4/2 128/4/2
f 126/4/2 127/4/2 131/4/2
f 131/4/2 127/4/2 132/4/2
f 128/4/2 129/4/2 133/4/2
f 133/4/2 129/4/2 134/4/2
f 130/4/2 131/4/2 136/4/2
f 136/4/2 131/4/2 137/4/2
f 134/4/2 135/4/2 140/4/2
f 140/4/2 135/4/2 141/4/2
f 137/4/2 138/4/2 142/4/2
f 142/4/2 138/4/2 143/4/2
f 139/4/2 140/4/2 144/4/2
f 144/4/2 140/4/2 145/4/2
f 143/4/2 144/4/2 147/4/2
f 147/4/2 144/4/2 148/4/2
f 148/4/2 144/4/2 149/4/2
f 146/1/2 147/1/2 151/1/2
f 147/1/2 148/1/2 151/1/2
f 151/1/2 148/1/2 152/1/2
f 150/1/2 151/1/2 154/1/2
f 154/1/2 151/1/2 155/1/2
f 153/1/2 154/1/2 157/1/2
f 157/1/2 154/1/2 158/1/2
f 156/1/2 157/1/2 160/1/2
f 160/1/2 157/1/2 161/1/2
f 159/1/2 160/1/2 162/1/2
f 162/1/2 160/1/2 163/1/2
f 164/4/2 165/4/2 167/4/2
f 167/4/2 165/4/2 168/4/2
f 166/4/2 167/4/2 170/4/2
f 170/4/2 167/4/2 171/4/2
f 168/4/2 169/4/2 172/4/2
f 172/4/2 169/4/2 173/4/2
f 171/4/2 172/4/2 174/4/2
f 174/4/2 172/4/2 175/4/2
f 176/1/2 177/1/2 179/1/2
f 179/1/2 177/1/2 180/1/2
f 178/1/2 179/1/2 182/1/2
f 182/1/2 179/1/2 183/1/2
f 181/2/2 182/2/2 185/2/2
f 185/2/2 182/2/2 186/2/2
f 184/2/2 185/2/2 188/2/2
f 188/2/2 185/2/2 189/2/2
f 187/2/2 188/2/2 191/2/2
f 191/2/2 188/2/2 192/2/2
f 190/2/2 191/2/2 194/2/2
f 194/2/2 191/2/2 195/2/2
f 193/2/2 194/2/2 197/2/2
f 197/2/2 194/2/2 198/2/2
f 196/2/2 197/2/2 200/2/2
f 200/2/2 197/2/2 201/2/2
f 199/2/2 200/2/2 203/2/2
f 203/2/2 200/2/2 204/2/2
f 202/1/2 203/1/2 206/1/2
f 206/1/2 203/1/2 207/1/2
f 205/1/2 206/1/2 208/1/2
f 208/1/2 206/1/2 209/1/2
f 210/4/2 211/4/2 212/4/2
f 212/4/2 211/4/2 213/4/2
f 214/1/2 215/1/2 217/1/2
f 217/1/2 215/1/2 218/1/2
f 216/1/2 217/1/2 220/1/2
f 220/1/2 217/1/2 221/1/2
f 219/3/2 220/3/2 223/3/2
f 223/3/2 220/3/2 224/3/2
f 222/1/2 223/1/2 226/1/2
f 226/1/2 223/1/2 227/1/2
f 225/1/2 226/1/2 229/1/2
f 229/1/2 226/1/2 230/1/2
f 228/3/2 229/3/2 232/3/2
f 232/3/2 229/3/2 233/3/2
f 231/1/2 232/1/2 235/1/2
f 235/1/2 232/1/2 236/1/2
f 234/1/2 235/1/2 237/1/2
f 237/1/2 235/1/2 238/1/2
f 241/1/3 240/1/3 239/1/3
f 242/1/3 240/1/3 241/1/3
f 245/1/3 244/1/3 243/1/3
f 246/1/3 244/1/3 245/1/3
f 249/3/3 248/3/3 247/3/3
f 250/3/3 248/3/3 249/3/3
f 253/1/3 252/1/3 251/1/3
f 254/1/3 252/1/3 253/1/3
f 257/1/3 256/1/3 255/1/3
f 258/1/3 256/1/3 257/1/3
f 261/3/3 260/3/3 259/3/3
f 262/3/3 260/3/3 261/3/3
f 265/1/3 264/1/3 263/1/3
f 266/1/3 264/1/3 265/1/3
f 269/1/3 268/1/3 267/1/3
f 270/1/3 268/1/3 269/1/3
f 273/1/3 272/1/3 271/1/3
f 274/1/3 272/1/3 273/1/3
f 277/1/3 276/1/3 275/1/3
f 278/1/3 276/1/3 277/1/3
f 281/2/3 280/2/3 279/2/3
f 282/2/3 280/2/3 281/2/3
f 285/2/3 284/2/3 283/2/3
f 286/2/3 284/2/3 285/2/3
f 289/2/3 288/2/3 287/2/3
f 290/2/3 288/2/3 289/2/3
f 293/2/3 292/2/3 291/2/3
f 294/2/3 292/2/3 293/2/3
f 297/2/3 296/2/3 295/2/3
f 298/2/3 296/2/3 297/2/3
f 301/2/3 300/2/3 299/2/3
f 302/2/3 300/2/3 301/2/3
f 305/2/3 304/2/3 303/2/3
f 306/2/3 304/2/3 305/2/3
f 309/1/3 308/1/3 307/1/3
f 310/1/3 308/1/3 309/1/3
f 313/1/3 312/1/3 311/1/3
f 314/1/3 312/1/3 313/1/3
f 317/1/3 316/1/3 315/1/3
f 318/1/3 316/1/3 317/1/3
f 321/1/3 320/1/3 319/1/3
f 322/1/3 320/1/3 321/1/3
f 325/1/3 324/1/3 323/1/3
f 326/1/3 324/1/3 325/1/3
f 329/1/3 328/1/3 327/1/3
f 330/1/3 328/1/3 329/1/3
f 333/4/3 332/4/3 331/4/3
f 334/4/3 332/4/3 333/4/3
f 338/4/3 336/4/3 335/4/3
f 339/4/3 336/4/3 338/4/3
f 343/4/3 338/4/3 337/4/3
f 344/4/3 338/4/3 343/4/3
f 345/4/3 340/4/3 339/4/3
f 346/4/3 340/4/3 345/4/3
f 347/1/3 342/1/3 341/1/3
f 348/1/3 342/1/3 347/1/3
f 349/4/3 345/4/3 344/4/3
f 350/4/3 345/4/3 349/4/3
f 354/4/3 352/4/3 351/4/3
f 355/4/3 352/4/3 354/4/3
f 358/4/3 354/4/3 353/4/3
f 359/4/3 354/4/3 358/4/3
f 360/4/3 356/4/3 355/4/3
f 361/4/3 356/4/3 360/4/3
f 363/4/3 358/4/3 357/4/3
f 364/4/3 358/4/3 363/4/3
f 367/4/3 362/4/3 361/4/3
f 368/4/3 362/4/3 367/4/3
f 369/4/3 365/4/3 364/4/3
f 370/4/3 365/4/3 369/4/3
f 371/4/3 367/4/3 366/4/3
f 372/4/3 367/4/3 371/4/3
f 373/4/3 371/4/3 370/4/3
f 374/4/3 371/4/3 373/4/3
f 377/4/3 376/4/3 375/4/3
f 378/4/3 376/4/3 377/4/3
f 379/1/4 380/1/4 381/1/4
f 381/1/4 380/1/4 382/1/4
f 383/1/4 384/1/4 385/1/4
f 385/1/4 384/1/4 386/1/4
f 387/3/4 388/3/4 389/3/4
f 389/3/4 388/3/4 390/3/4
f 391/1/4 392/1/4 393/1/4
f 393/1/4 392/1/4 394/1/4
f 395/1/4 396/1/4 397/1/4
f 397/1/4 396/1/4 398/1/4
f 399/3/4 400/3/4 401/3/4
f 401/3/4 400/3/4 402/3/4
f 403/1/4 404/1/4 405/1/4
f 405/1/4 404/1/4 406/1/4
f 407/1/4 408/1/4 409/1/4
f 409/1/4 408/1/4 410/1/4
f 410/1/4 408/1/4 411/1/4
f 411/1/4 408/1/4 412/1/4
f 413/1/4 414/1/4 415/1/4
f 415/1/4 414/1/4 416/1/4
f 417/1/4 418/1/4 419/1/4
f 419/1/4 418/1/4 420/1/4
f 421/2/4 422/2/4 423/2/4
f 423/2/4 422/2/4 424/2/4
f 425/2/4 426/2/4 427/2/4
f 427/2/4 426/2/4 428/2/4
f 429/2/4 430/2/4 431/2/4
f 431/2/4 430/2/4 432/2/4
f 433/2/4 434/2/4 435/2/4
f 435/2/4 434/2/4 436/2/4
f 437/2/4 438/2/4 439/2/4
f 439/2/4 438/2/4 440/2/4
f 441/2/4 442/2/4 443/2/4
f 443/2/4 442/2/4 444/2/4
f 445/2/4 446/2/4 447/2/4
f 447/2/4 446/2/4 448/2/4
f 449/1/4 450/1/4 451/1/4
f 451/1/4 450/1/4 452/1/4
f 453/1/4 454/1/4 455/1/4
f 455/1/4 454/1/4 456/1/4
f 456/1/4 454/1/4 457/1/4
f 457/1/4 454/1/4 458/1/4
f 459/1/4 460/1/4 461/1/4
f 461/1/4 460/1/4 462/1/4
f 463/1/4 464/1/4 465/1/4
f 465/1/4 464/1/4 466/1/4
f 467/1/4 468/1/4 469/1/4
f 469/1/4 468/1/4 470/1/4
f 471/1/4 472/1/4 473/1/4
f 473/1/4 472/1/4 474/1/4
f 475/4/4 476/4/4 477/4/4
f 477/4/4 476/4/4 478/4/4
f 479/1/4 480/1/4 481/1/4
f 481/1/4 480/1/4 482/1/4
f 483/4/4 484/4/4 486/4/4
f 486/4/4 484/4/4 487/4/4
f 485/4/4 486/4/4 490/4/4
f 490/4/4 486/4/4 491/4/4
f 487/4/4 488/4/4 492/4/4
f 492/4/4 488/4/4 493/4/4
f 489/4/4 490/4/4 495/4/4
f 495/4/4 490/4/4 496/4/4
f 493/4/4 494/4/4 499/4/4
f 499/4/4 494/4/4 500/4/4
f 496/4/4 497/4/4 501/4/4
f 501/4/4 497/4/4 502/4/4
f 498/4/4 499/4/4 503/4/4
f 503/4/4 499/4/4 504/4/4
f 502/4/4 503/4/4 505/4/4
f 505/4/4 503/4/4 506/4/4
f 507/4/4 508/4/4 510/4/4
f 510/4/4 508/4/4 511/4/4
f 509/4/4 510/4/4 513/4/4
f 513/4/4 510/4/4 514/4/4
f 511/4/4 512/4/4 515/4/4
f 515/4/4 512/4/4 516/4/4
f 514/4/4 515/4/4 517/4/4
f 517/4/4 515/4/4 518/4/4
f 519/4/4 520/4/4 521/4/4
f 521/4/4 520/4/4 522/4/4
f 525/4/5 524/4/5 523/4/5
f 526/4/5 524/4/5 525/4/5
f 530/4/5 528/4/5 527/4/5
f 531/4/5 528/4/5 530/4/5
f 533/4/5 530/4/5 529/4/5
f 534/4/5 530/4/5 533/4/5
f 535/4/5 532/4/5 531/4/5
f 536/4/5 532/4/5 535/4/5
f 537/4/5 535/4/5 534/4/5
f 538/4/5 535/4/5 537/4/5
f 542/4/5 540/4/5 539/4/5
f 543/4/5 540/4/5 542/4/5
f 546/4/5 542/4/5 541/4/5
f 547/4/5 542/4/5 546/4/5
f 548/4/5 544/4/5 543/4/5
f 549/4/5 544/4/5 548/4/5
f 551/4/5 546/4/5 545/4/5
f 552/4/5 546/4/5 551/4/5
f 555/4/5 550/4/5 549/4/5
f 556/4/5 550/4/5 555/4/5
f 557/4/5 553/4/5 552/4/5
f 558/4/5 553/4/5 557/4/5
f 559/4/5 555/4/5 554/4/5
f 560/4/5 555/4/5 559/4/5
f 561/4/5 559/4/5 558/4/5
f 562/4/5 559/4/5 561/4/5
f 565/4/5 564/4/5 563/4/5
f 566/4/5 564/4/5 565/4/5
f 569/1/5 568/1/5 567/1/5
f 570/1/5 568/1/5 569/1/5
f 573/1/5 572/1/5 571/1/5
f 574/1/5 572/1/5 573/1/5
f 577/1/5 576/1/5 575/1/5
f 578/1/5 576/1/5 577/1/5
f 581/1/5 580/1/5 579/1/5
f 582/1/5 580/1/5 581/1/5
f 585/1/5 584/1/5 583/1/5
f 586/1/5 584/1/5 585/1/5
f 589/1/5 588/1/5 587/1/5
f 590/1/5 588/1/5 589/1/5
f 591/1/5 588/1/5 590/1/5
f 592/1/5 588/1/5 591/1/5
f 595/1/5 594/1/5 593/1/5
f 596/1/5 594/1/5 595/1/5
f 599/2/5 598/2/5 597/2/5
f 600/2/5 598/2/5 599/2/5
f 603/2/5 602/2/5 601/2/5
f 604/2/5 602/2/5 603/2/5
f 607/2/5 606/2/5 605/2/5
f 608/2/5 606/2/5 607/2/5
f 611/2/5 610/2/5 609/2/5
f 612/2/5 610/2/5 611/2/5
f 615/2/5 614/2/5 613/2/5
f 616/2/5 614/2/5 615/2/5
f 619/2/5 618/2/5 617/2/5
f 620/2/5 618/2/5 619/2/5
f 623/2/5 622/2/5 621/2/5
f 624/2/5 622/2/5 623/2/5
f 627/1/5 626/1/5 625/1/5
f 628/1/5 626/1/5 627/1/5
f 631/1/5 630/1/5 629/1/5
f 632/1/5 630/1/5 631/1/5
f 635/1/5 634/1/5 633/1/5
f 636/1/5 634/1/5 635/1/5
f 637/1/5 634/1/5 636/1/5
f 638/1/5 634/1/5 637/1/5
f 641/1/5 640/1/5 639/1/5
f 642/1/5 640/1/5 641/1/5
f 645/3/5 644/3/5 643/3/5
f 646/3/5 644/3/5 645/3/5
f 649/1/5 648/1/5 647/1/5
f 650/1/5 648/1/5 649/1/5
f 653/1/5 652/1/5 651/1/5
f 654/1/5 652/1/5 653/1/5
f 657/3/5 656/3/5 655/3/5
f 658/3/5 656/3/5 657/3/5
f 661/1/5 660/1/5 659/1/5
f 662/1/5 660/1/5 661/1/5
f 665/1/5 664/1/5 663/1/5
f 666/1/5 664/1/5 665/1/5
f 667/4/6 668/4/6 670/4/6
f 670/4/6 668/4/6 671/4/6
f 669/4/6 670/4/6 674/4/6
f 674/4/6 670/4/6 675/4/6
f 671/4/6 672/4/6 676/4/6
f 676/4/6 672/4/6 677/4/6
f 673/4/6 674/4/6 679/4/6
f 679/4/6 674/4/6 680/4/6
f 675/4/6 676/4/6 681/4/6
f 681/4/6 676/4/6 682/4/6
f 677/4/6 678/4/6 683/4/6
f 683/4/6 678/4/6 684/4/6
f 680/4/6 681/4/6 685/4/6
f 685/4/6 681/4/6 686/4/6
f 682/4/6 683/4/6 687/4/6
f 687/4/6 683/4/6 688/4/6
f 686/4/6 687/4/6 689/4/6
f 689/4/6 687/4/6 690/4/6
f 691/4/6 692/4/6 694/4/6
f 694/4/6 692/4/6 695/4/6
f 693/4/6 694/4/6 697/4/6
f 697/4/6 694/4/6 698/4/6
f 695/4/6 696/4/6 699/4/6
f 699/4/6 696/4/6 700/4/6
f 698/4/6 699/4/6 701/4/6
f 701/4/6 699/4/6 702/4/6
f 703/4/6 704/4/6 705/4/6
f 705/4/6 704/4/6 706/4/6
f 707/1/6 708/1/6 709/1/6
f 709/1/6 708/1/6 710/1/6
f 711/1/6 712/1/6 713/1/6
f 713/1/6 712/1/6 714/1/6
f 715/1/6 716/1/6 717/1/6
f 717/1/6 716/1/6 718/1/6
f 719/1/6 720/1/6 721/1/6
f 721/1/6 720/1/6 722/1/6
f 723/1/6 724/1/6 725/1/6
f 725/1/6 724/1/6 726/1/6
f 727/1/6 728/1/6 729/1/6
f 729/1/6 728/1/6 730/1/6
f 731/1/6 732/1/6 733/1/6
f 733/1/6 732/1/6 734/1/6
f 735/2/6 736/2/6 737/2/6
f 737/2/6 736/2/6 738/2/6
f 739/2/6 740/2/6 741/2/6
f 741/2/6 740/2/6 742/2/6
f 743/2/6 744/2/6 745/2/6
f 745/2/6 744/2/6 746/2/6
f 747/2/6 748/2/6 749/2/6
f 749/2/6 748/2/6 750/2/6
f 751/2/6 752/2/6 753/2/6
f 753/2/6 752/2/6 754/2/6
f 755/2/6 756/2/6 757/2/6
f 757/2/6 756/2/6 758/2/6
f 759/2/6 760/2/6 761/2/6
f 761/2/6 760/2/6 762/2/6
f 763/1/6 764/1/6 765/1/6
f 765/1/6 764/1/6 766/1/6
f 767/1/6 768/1/6 769/1/6
f 769/1/6 768/1/6 770/1/6
f 771/1/6 772/1/6 773/1/6
f 773/1/6 772/1/6 774/1/6
f 775/1/6 776/1/6 777/1/6
f 777/1/6 776/1/6 778/1/6
f 779/3/6 780/3/6 781/3/6
f 781/3/6 780/3/6 782/3/6
f 783/1/6 784/1/6 785/1/6
f 785/1/6 784/1/6 786/1/6
f 787/1/6 788/1/6 789/1/6
f 789/1/6 788/1/6 790/1/6
f 791/3/6 792/3/6 793/3/6
f 793/3/6 792/3/6 794/3/6
f 795/1/6 796/1/6 797/1/6
f 797/1/6 796/1/6 798/1/6
f 799/1/6 800/1/6 801/1/6
f 801/1/6 800/1/6 802/1/6
